<svg width="1512" height="785" viewBox="0 0 1512 785" fill="none" xmlns="http://www.w3.org/2000/svg">
<g clip-path="url(#clip0_588_2149)">
<path d="M1546.44 0.561035L1438.17 472.062" stroke="#6B1CE3" stroke-width="2" stroke-miterlimit="10" stroke-linecap="round"/>
<path d="M1466.2 17.6338L1359.63 499.517" stroke="#6B1CE3" stroke-width="2" stroke-miterlimit="10" stroke-linecap="round"/>
<path d="M1388.87 44.7192L1283.7 525.775" stroke="#6B1CE3" stroke-width="2" stroke-miterlimit="10" stroke-linecap="round"/>
<path d="M1324.42 65.0112L1206.46 554.426" stroke="#6B1CE3" stroke-width="2" stroke-miterlimit="10" stroke-linecap="round"/>
<path d="M1259.95 87.6958L1155.95 583.077" stroke="#6B1CE3" stroke-width="2" stroke-miterlimit="10" stroke-linecap="round"/>
<path d="M1201.47 104.399L1105.44 610.532" stroke="#6B1CE3" stroke-width="2" stroke-miterlimit="10" stroke-linecap="round"/>
<path d="M1150.57 124.366L1054.93 635.594" stroke="#6B1CE3" stroke-width="2" stroke-miterlimit="10" stroke-linecap="round"/>
<path d="M1100.27 142.605L1004.42 660.656" stroke="#6B1CE3" stroke-width="2" stroke-miterlimit="10" stroke-linecap="round"/>
<path d="M1048.79 161.257L953.913 682.144" stroke="#6B1CE3" stroke-width="2" stroke-miterlimit="10" stroke-linecap="round"/>
<path d="M996.151 181.993L903.418 704.829" stroke="#6B1CE3" stroke-width="2" stroke-miterlimit="10" stroke-linecap="round"/>
<path d="M960.721 193.719L866.614 721.871" stroke="#6B1CE3" stroke-width="2" stroke-miterlimit="10" stroke-linecap="round"/>
<path d="M928.377 204.899L834.964 735.858" stroke="#6B1CE3" stroke-width="2" stroke-miterlimit="10" stroke-linecap="round"/>
<path d="M909.754 211.663L817.02 744.216" stroke="#6B1CE3" stroke-width="2" stroke-miterlimit="10" stroke-linecap="round"/>
<path d="M891.115 218.412L799.091 752.576" stroke="#6B1CE3" stroke-width="2" stroke-miterlimit="10" stroke-linecap="round"/>
<path d="M872.492 225.161L781.147 763.312" stroke="#6B1CE3" stroke-width="2" stroke-miterlimit="10" stroke-linecap="round"/>
<path d="M853.854 231.911L763.202 770.475" stroke="#6B1CE3" stroke-width="2" stroke-miterlimit="10" stroke-linecap="round"/>
<path d="M835.23 238.66L745.273 780.03" stroke="#6B1CE3" stroke-width="2" stroke-miterlimit="10" stroke-linecap="round"/>
<path d="M816.592 245.424L727.329 784.801" stroke="#6B1CE3" stroke-width="2" stroke-miterlimit="10" stroke-linecap="round"/>
<path d="M797.968 252.173L709.399 790.767" stroke="#6B1CE3" stroke-width="2" stroke-miterlimit="10" stroke-linecap="round"/>
<path d="M779.345 258.922L691.455 799.126" stroke="#6B1CE3" stroke-width="2" stroke-miterlimit="10" stroke-linecap="round"/>
<path d="M760.706 265.671L673.511 805.092" stroke="#6B1CE3" stroke-width="2" stroke-miterlimit="10" stroke-linecap="round"/>
<path d="M742.083 272.42L655.346 808.681" stroke="#6B1CE3" stroke-width="2" stroke-miterlimit="10" stroke-linecap="round"/>
<path d="M723.444 279.185L637.637 813.451" stroke="#6B1CE3" stroke-width="2" stroke-miterlimit="10" stroke-linecap="round"/>
<path d="M704.821 285.934L619.694 815.844" stroke="#6B1CE3" stroke-width="2" stroke-miterlimit="10" stroke-linecap="round"/>
<path d="M686.67 292.506L601.764 820.614" stroke="#6B1CE3" stroke-width="2" stroke-miterlimit="10" stroke-linecap="round"/>
<path d="M667.56 299.432L583.82 822.696" stroke="#6B1CE3" stroke-width="2" stroke-miterlimit="10" stroke-linecap="round"/>
<path d="M648.936 306.182L565.89 823.007" stroke="#6B1CE3" stroke-width="2" stroke-miterlimit="10" stroke-linecap="round"/>
<path d="M630.298 312.946L547.947 828.073" stroke="#6B1CE3" stroke-width="2" stroke-miterlimit="10" stroke-linecap="round"/>
<path d="M611.777 319.65L530.002 829.859" stroke="#6B1CE3" stroke-width="2" stroke-miterlimit="10" stroke-linecap="round"/>
<path d="M593.036 326.443L512.073 829.859" stroke="#6B1CE3" stroke-width="2" stroke-miterlimit="10" stroke-linecap="round"/>
<path d="M574.412 333.193L494.129 829.859" stroke="#6B1CE3" stroke-width="2" stroke-miterlimit="10" stroke-linecap="round"/>
<path d="M555.773 339.957L476.184 832.547" stroke="#6B1CE3" stroke-width="2" stroke-miterlimit="10" stroke-linecap="round"/>
<path d="M537.15 346.707L458.255 833.448" stroke="#6B1CE3" stroke-width="2" stroke-miterlimit="10" stroke-linecap="round"/>
<path d="M518.527 353.456L440.311 832.547" stroke="#6B1CE3" stroke-width="2" stroke-miterlimit="10" stroke-linecap="round"/>
<path d="M499.889 360.205L422.367 831.661" stroke="#6B1CE3" stroke-width="2" stroke-miterlimit="10" stroke-linecap="round"/>
<path d="M483.997 365.964L404.216 831.661" stroke="#6B1CE3" stroke-width="2" stroke-miterlimit="10" stroke-linecap="round"/>
<path d="M469.405 371.252L386.493 830.76" stroke="#6B1CE3" stroke-width="2" stroke-miterlimit="10" stroke-linecap="round"/>
<path d="M454.799 376.553L368.564 828.973" stroke="#6B1CE3" stroke-width="2" stroke-miterlimit="10" stroke-linecap="round"/>
<path d="M440.208 381.841L352.437 828.072" stroke="#6B1CE3" stroke-width="2" stroke-miterlimit="10" stroke-linecap="round"/>
<path d="M425.602 387.128L336.87 826.285" stroke="#6B1CE3" stroke-width="2" stroke-miterlimit="10" stroke-linecap="round"/>
<path d="M410.995 392.43L321.023 823.597" stroke="#6B1CE3" stroke-width="2" stroke-miterlimit="10" stroke-linecap="round"/>
<path d="M396.403 397.717L305.176 823.597" stroke="#6B1CE3" stroke-width="2" stroke-miterlimit="10" stroke-linecap="round"/>
<path d="M381.088 403.713L289.329 820.009" stroke="#6B1CE3" stroke-width="2" stroke-miterlimit="10" stroke-linecap="round"/>
<path d="M367.205 408.306L273.482 821.81" stroke="#6B1CE3" stroke-width="2" stroke-miterlimit="10" stroke-linecap="round"/>
<path d="M352.599 413.593L257.635 820.909" stroke="#6B1CE3" stroke-width="2" stroke-miterlimit="10" stroke-linecap="round"/>
<path d="M338.007 418.88L241.788 819.122" stroke="#6B1CE3" stroke-width="2" stroke-miterlimit="10" stroke-linecap="round"/>
<path d="M325.1 423.562L225.942 817.335" stroke="#6B1CE3" stroke-width="2" stroke-miterlimit="10" stroke-linecap="round"/>
<path d="M312.59 428.096L210.094 816.435" stroke="#6B1CE3" stroke-width="2" stroke-miterlimit="10" stroke-linecap="round"/>
<path d="M299.889 432.704L194.867 815.534" stroke="#6B1CE3" stroke-width="2" stroke-miterlimit="10" stroke-linecap="round"/>
<path d="M287.188 437.311L181.162 815.534" stroke="#6B1CE3" stroke-width="2" stroke-miterlimit="10" stroke-linecap="round"/>
<path d="M274.472 441.904L167.442 813.747" stroke="#6B1CE3" stroke-width="2" stroke-miterlimit="10" stroke-linecap="round"/>
<path d="M261.771 446.512L153.736 812.861" stroke="#6B1CE3" stroke-width="2" stroke-miterlimit="10" stroke-linecap="round"/>
<path d="M249.069 451.12L140.016 812.861" stroke="#6B1CE3" stroke-width="2" stroke-miterlimit="10" stroke-linecap="round"/>
<path d="M236.354 455.728L126.311 811.96" stroke="#6B1CE3" stroke-width="2" stroke-miterlimit="10" stroke-linecap="round"/>
<path d="M223.652 460.335L112.591 811.96" stroke="#6B1CE3" stroke-width="2" stroke-miterlimit="10" stroke-linecap="round"/>
<path d="M210.951 464.928L98.8851 811.059" stroke="#6B1CE3" stroke-width="2" stroke-miterlimit="10" stroke-linecap="round"/>
<path d="M198.25 469.536L85.1649 810.173" stroke="#6B1CE3" stroke-width="2" stroke-miterlimit="10" stroke-linecap="round"/>
<path d="M185.533 474.144L71.4585 810.173" stroke="#6B1CE3" stroke-width="2" stroke-miterlimit="10" stroke-linecap="round"/>
<path d="M172.832 478.752L57.7384 809.272" stroke="#6B1CE3" stroke-width="2" stroke-miterlimit="10" stroke-linecap="round"/>
<path d="M160.131 483.404L44.033 807.485" stroke="#6B1CE3" stroke-width="2" stroke-miterlimit="10" stroke-linecap="round"/>
<path d="M147.43 487.953L30.3128 804.797" stroke="#6B1CE3" stroke-width="2" stroke-miterlimit="10" stroke-linecap="round"/>
<path d="M136.678 491.852L16.607 804.797" stroke="#6B1CE3" stroke-width="2" stroke-miterlimit="10" stroke-linecap="round"/>
<path d="M125.558 495.883L4.52687 803.896" stroke="#6B1CE3" stroke-width="2" stroke-miterlimit="10" stroke-linecap="round"/>
<path d="M114.437 499.915L-7.55414 802.109" stroke="#6B1CE3" stroke-width="2" stroke-miterlimit="10" stroke-linecap="round"/>
<path d="M103.33 503.947L-19.6354 803.01" stroke="#6B1CE3" stroke-width="2" stroke-miterlimit="10" stroke-linecap="round"/>
<path d="M92.209 507.979L-31.7164 801.208" stroke="#6B1CE3" stroke-width="2" stroke-miterlimit="10" stroke-linecap="round"/>
<path d="M81.0879 511.996L-43.7827 798.535" stroke="#6B1CE3" stroke-width="2" stroke-miterlimit="10" stroke-linecap="round"/>
<path d="M69.9678 516.028L-55.8629 798.535" stroke="#6B1CE3" stroke-width="2" stroke-miterlimit="10" stroke-linecap="round"/>
<path d="M58.8467 520.06L-67.9439 798.535" stroke="#6B1CE3" stroke-width="2" stroke-miterlimit="10" stroke-linecap="round"/>
<path d="M47.7402 524.254L-80.0251 798.535" stroke="#6B1CE3" stroke-width="2" stroke-miterlimit="10" stroke-linecap="round"/>
<path d="M36.6191 528.123L-92.1061 796.733" stroke="#6B1CE3" stroke-width="2" stroke-miterlimit="10" stroke-linecap="round"/>
<path d="M25.498 532.155L-104.187 795.847" stroke="#6B1CE3" stroke-width="2" stroke-miterlimit="10" stroke-linecap="round"/>
<path d="M14.377 536.187L-116.253 794.946" stroke="#6B1CE3" stroke-width="2" stroke-miterlimit="10" stroke-linecap="round"/>
<path d="M3.25586 540.204L-128.335 795.847" stroke="#6B1CE3" stroke-width="2" stroke-miterlimit="10" stroke-linecap="round"/>
</g>
<defs>
<clipPath id="clip0_588_2149">
<rect width="1766" height="785" fill="white" transform="matrix(-1 0 0 1 1547 0)"/>
</clipPath>
</defs>
</svg>
